<svg width="80" height="80" viewBox="0 0 80 80" fill="none" xmlns="http://www.w3.org/2000/svg">
<path d="M45 33.78C46.6496 33.78 48.2317 34.4353 49.3982 35.6018C50.5647 36.7683 51.22 38.3504 51.22 40C51.22 41.6497 50.5647 43.2318 49.3982 44.3982C48.2317 45.5647 46.6496 46.22 45 46.22" stroke="#AEAEAE" stroke-width="2" stroke-linecap="round" stroke-linejoin="round"/>
<path d="M22 51H14C13.4696 51 12.9609 50.7893 12.5858 50.4142C12.2107 50.0391 12 49.5304 12 49V31C12 30.4696 12.2107 29.9609 12.5858 29.5858C12.9609 29.2107 13.4696 29 14 29H22" stroke="#AEAEAE" stroke-width="2" stroke-linecap="round" stroke-linejoin="round"/>
<path d="M62.5901 57.6199C64.9074 55.3079 66.7458 52.5615 68.0002 49.538C69.2546 46.5145 69.9003 43.2733 69.9003 39.9999C69.9003 36.7265 69.2546 33.4852 68.0002 30.4617C66.7458 27.4382 64.9074 24.6919 62.5901 22.3799" stroke="#AEAEAE" stroke-width="2" stroke-linecap="round" stroke-linejoin="round"/>
<path d="M55.4099 29.5701C56.7941 30.9316 57.8934 32.555 58.6438 34.3457C59.3942 36.1364 59.7807 38.0585 59.7807 40.0001C59.7807 41.9416 59.3942 43.8638 58.6438 45.6545C57.8934 47.4451 56.7941 49.0686 55.4099 50.4301" stroke="#AEAEAE" stroke-width="2" stroke-linecap="round" stroke-linejoin="round"/>
<path d="M45 63.99L26 51V29L45 16V63.99Z" stroke="#AEAEAE" stroke-width="2" stroke-linecap="round" stroke-linejoin="round"/>
<path d="M40 79C61.5391 79 79 61.5391 79 40C79 18.4609 61.5391 1 40 1C18.4609 1 1 18.4609 1 40C1 61.5391 18.4609 79 40 79Z" stroke="#AEAEAE" stroke-width="2" stroke-linecap="round" stroke-linejoin="round"/>
<path d="M53.3799 59.1001L62.3699 71.9501" stroke="#AEAEAE" stroke-width="2" stroke-linecap="round" stroke-linejoin="round"/>
<path d="M17.63 8.05005L25.4 19.15" stroke="#AEAEAE" stroke-width="2" stroke-linecap="round" stroke-linejoin="round"/>
</svg>
