<svg width="195" height="195" viewBox="0 0 195 195" fill="none" xmlns="http://www.w3.org/2000/svg">
<path fill-rule="evenodd" clip-rule="evenodd" d="M153.096 0H124.885V6.96851H153.096V0ZM124.885 18.7794H153.096V25.7479H124.885V18.7794ZM153.096 37.5591H124.885V44.5276H153.096V37.5591ZM124.885 56.4568H153.096V63.4253H124.885V56.4568ZM153.096 75.236H124.885V82.2045H153.096V75.236ZM124.885 94.0159H153.096V100.984H124.885V94.0159ZM153.096 112.795H124.885V119.764H153.096V112.795ZM124.885 131.693H153.096V138.662H124.885V131.693ZM153.096 150.473H124.885V157.441H153.096V150.473ZM124.885 169.252H153.096V176.22H124.885V169.252ZM124.885 188.031H153.096V195H124.885V188.031ZM166.789 188.031H195V195H166.789V188.031ZM195 169.252H166.789V176.22H195V169.252ZM166.789 150.473H195V157.441H166.789V150.473ZM195 131.693H166.789V138.662H195V131.693ZM166.789 112.795H195V119.764H166.789V112.795ZM195 94.0159H166.789V100.984H195V94.0159ZM166.789 75.236H195V82.2045H166.789V75.236ZM111.665 188.031H83.4534V195H111.665V188.031ZM83.4534 169.252H111.665V176.22H83.4534V169.252ZM111.665 150.473H83.4534V157.441H111.665V150.473ZM83.4534 131.693H111.665V138.662H83.4534V131.693ZM111.665 112.795H83.4534V119.764H111.665V112.795ZM83.4534 94.0159H111.665V100.984H83.4534V94.0159ZM111.665 75.236H83.4534V82.2045H111.665V75.236ZM83.4534 56.4568H111.665V63.4253H83.4534V56.4568ZM111.665 37.5591H83.4534V44.5276H111.665V37.5591ZM41.4317 188.031H69.6429V195H41.4317V188.031ZM69.6429 169.252H41.4317V176.22H69.6429V169.252ZM41.4317 150.473H69.6429V157.441H41.4317V150.473ZM69.6429 131.693H41.4317V138.662H69.6429V131.693ZM41.4317 112.795H69.6429V119.764H41.4317V112.795ZM28.2112 188.031H0V195H28.2112V188.031ZM0 169.252H28.2112V176.22H0V169.252ZM28.2112 150.473H0V157.441H28.2112V150.473ZM0 131.693H28.2112V138.662H0V131.693ZM28.2112 112.795H0V119.764H28.2112V112.795ZM0 94.0159H28.2112V100.984H0V94.0159ZM28.2112 75.236H0V82.2045H28.2112V75.236ZM0 56.4568H28.2112V63.4253H0V56.4568ZM28.2112 37.5591H0V44.5276H28.2112V37.5591ZM0 18.7794H28.2112V25.7479H0V18.7794ZM28.2112 0H0V6.96851H28.2112V0Z" fill="#00AEFF"/>
</svg>
