<svg width="195" height="195" viewBox="0 0 195 195" fill="none" xmlns="http://www.w3.org/2000/svg">
<path d="M170.743 0V115.088C167.667 114.734 166.01 114.616 164.235 114.616C162.461 114.616 160.686 114.852 157.728 115.088V0H126.49V42.73C123.413 42.4939 121.757 42.3759 119.982 42.3759C118.207 42.3759 116.432 42.612 113.474 42.8481V0H82.1177V95.0212C79.0413 94.6671 77.3847 94.549 75.6098 94.549C73.835 94.549 72.0601 94.7851 69.1019 95.0212V0H37.7458V25.7324C34.6693 25.3783 33.0127 25.2603 31.2379 25.2603C29.463 25.2603 27.6881 25.4964 24.73 25.7324V0H0V194.882H24.6117V78.8499C27.6881 79.204 29.3447 79.322 31.1195 79.322C32.8944 79.322 34.6693 79.086 37.6274 78.8499V194.882H68.8653V148.139C71.9417 148.493 73.5983 148.611 75.3732 148.611C77.1481 148.611 78.9229 148.375 81.8811 148.139V194.882H113.119V95.9655C116.195 96.3196 117.852 96.4376 119.627 96.4376C121.402 96.4376 123.177 96.2016 126.135 95.8475V195H157.373V168.323C160.449 168.677 162.106 168.795 163.88 168.795C165.655 168.795 167.43 168.559 170.388 168.323V195H195V0H170.743ZM31.1195 71.5315C20.4703 71.5315 11.8325 62.9146 11.8325 52.2912C11.8325 41.6677 20.4703 33.0508 31.1195 33.0508C41.7688 33.0508 50.4066 41.6677 50.4066 52.2912C50.5249 62.9146 41.8871 71.5315 31.1195 71.5315ZM75.4915 140.938C64.7239 140.938 55.9678 132.203 55.9678 121.462C55.9678 110.72 64.7239 101.985 75.4915 101.985C86.2591 101.985 95.0152 110.72 95.0152 121.462C95.0152 132.203 86.2591 140.938 75.4915 140.938ZM119.863 88.7651C109.096 88.7651 100.34 80.0303 100.34 69.2887C100.34 58.5472 109.096 49.8123 119.863 49.8123C130.631 49.8123 139.387 58.5472 139.387 69.2887C139.387 80.0303 130.631 88.7651 119.863 88.7651ZM164.235 161.005C153.468 161.005 144.712 152.27 144.712 141.528C144.712 130.787 153.468 122.052 164.235 122.052C175.003 122.052 183.759 130.787 183.759 141.528C183.641 152.388 175.003 161.005 164.235 161.005Z" fill="#E3E7F2"/>
</svg>
