<svg width="195" height="195" viewBox="0 0 195 195" fill="none" xmlns="http://www.w3.org/2000/svg">
<path fill-rule="evenodd" clip-rule="evenodd" d="M0 0H6.61816V195H0V0ZM20.9182 13.1102H27.5364V181.772H20.9182V13.1102ZM48.4545 29.7638H41.8363V165.236H48.4545V29.7638ZM62.7545 60.9449H69.3727V134.055H62.7545V60.9449ZM90.2909 35.9055H83.6727V159.213H90.2909V35.9055ZM104.709 51.1417H111.327V143.976H104.709V51.1417ZM132.245 14.5275H125.627V180.59H132.245V14.5275ZM146.545 0H153.164V195H146.545V0ZM174.082 17.4802H167.464V177.52H174.082V17.4802ZM188.382 0H195V195H188.382V0Z" fill="white"/>
</svg>
