<svg width="195" height="195" viewBox="0 0 195 195" fill="none" xmlns="http://www.w3.org/2000/svg">
<path fill-rule="evenodd" clip-rule="evenodd" d="M78.0709 0H116.929C156.142 7.79528 187.205 38.8583 195 78.0709V116.929C187.205 156.26 156.142 187.205 116.929 195H78.0709C38.7401 187.205 7.79524 156.26 -3.05176e-05 116.929V78.0709C7.79524 38.8583 38.8582 7.79528 78.0709 0ZM33.7795 195H56.6929C31.1811 184.252 10.748 163.819 -3.05176e-05 138.307V161.22C8.85823 174.685 20.3149 186.142 33.7795 195ZM138.307 195C163.819 184.252 184.252 163.819 195 138.307V161.22C186.142 174.685 174.685 186.26 161.22 195H138.307ZM161.22 0H138.307C163.819 10.748 184.252 31.1811 195 56.6929V33.7795C186.142 20.315 174.685 8.85827 161.22 0ZM56.6929 0C31.1811 10.748 10.748 31.1811 -3.05176e-05 56.6929V33.7795C8.74013 20.315 20.3149 8.85827 33.7795 0H56.6929ZM195 0H172.087C180.709 6.61417 188.386 14.2913 195 22.9134V0ZM172.087 195C180.709 188.386 188.386 180.709 195 172.087V195L172.087 195ZM0 195L22.9134 195C14.2913 188.386 6.61414 180.709 -3.05176e-05 172.087L0 195ZM22.9134 0C14.2913 6.61417 6.61414 14.2913 -3.05176e-05 22.9134L0 0H22.9134ZM97.559 186.142C146.339 186.142 186.142 146.457 186.142 97.559C186.142 48.6614 146.339 8.85824 97.559 8.97635C48.7795 8.97635 8.97635 48.7795 8.97635 97.559C8.97635 146.339 48.6614 186.142 97.559 186.142ZM97.4409 179.882C52.0866 179.882 15.1181 142.913 15.1181 97.559C15.1181 52.0866 52.0866 15.1181 97.4409 15.2362C142.795 15.2362 179.764 52.2047 179.764 97.559C179.764 142.913 142.795 179.882 97.4409 179.882ZM169.016 97.5591C169.016 137.008 136.89 169.134 97.4409 169.134C57.9921 169.134 25.8661 137.008 25.8661 97.5591C25.8661 58.1102 57.9921 25.9843 97.4409 25.9843C136.89 25.9843 169.016 58.1102 169.016 97.5591ZM97.4409 67.3228C80.7874 67.3228 67.3228 80.7874 67.3228 97.441C67.3228 114.095 80.7874 127.559 97.4409 127.559C114.094 127.677 127.677 114.213 127.677 97.5591C127.677 80.9055 114.094 67.3228 97.4409 67.3228ZM115.039 97.5591C115.039 107.244 107.126 115.158 97.4409 115.158C87.7559 115.158 79.8425 107.244 79.8425 97.5591C79.8425 87.8741 87.7559 79.9607 97.4409 79.9607C107.126 79.9607 115.039 87.8741 115.039 97.5591ZM108.78 97.441C108.78 91.1812 103.701 86.1024 97.4409 86.1024C91.1811 86.1024 86.1024 91.1812 86.1024 97.441C86.1024 103.701 91.1811 108.78 97.4409 108.78C103.701 108.78 108.78 103.701 108.78 97.441Z" fill="white"/>
</svg>
